%TF.GenerationSoftware,KiCad,Pcbnew,10.0.0*%
%TF.CreationDate,2026-04-21T09:58:29+03:00*%
%TF.ProjectId,flowerinator,666c6f77-6572-4696-9e61-746f722e6b69,rev?*%
%TF.SameCoordinates,Original*%
%TF.FileFunction,Copper,L1,Top*%
%TF.FilePolarity,Positive*%
%FSLAX46Y46*%
G04 Gerber Fmt 4.6, Leading zero omitted, Abs format (unit mm)*
G04 Created by KiCad (PCBNEW 10.0.0) date 2026-04-21 09:58:29*
%MOMM*%
%LPD*%
G01*
G04 APERTURE LIST*
G04 Aperture macros list*
%AMRoundRect*
0 Rectangle with rounded corners*
0 $1 Rounding radius*
0 $2 $3 $4 $5 $6 $7 $8 $9 X,Y pos of 4 corners*
0 Add a 4 corners polygon primitive as box body*
4,1,4,$2,$3,$4,$5,$6,$7,$8,$9,$2,$3,0*
0 Add four circle primitives for the rounded corners*
1,1,$1+$1,$2,$3*
1,1,$1+$1,$4,$5*
1,1,$1+$1,$6,$7*
1,1,$1+$1,$8,$9*
0 Add four rect primitives between the rounded corners*
20,1,$1+$1,$2,$3,$4,$5,0*
20,1,$1+$1,$4,$5,$6,$7,0*
20,1,$1+$1,$6,$7,$8,$9,0*
20,1,$1+$1,$8,$9,$2,$3,0*%
G04 Aperture macros list end*
%TA.AperFunction,ComponentPad*%
%ADD10RoundRect,0.250000X1.550000X-0.750000X1.550000X0.750000X-1.550000X0.750000X-1.550000X-0.750000X0*%
%TD*%
%TA.AperFunction,ComponentPad*%
%ADD11O,3.600000X2.000000*%
%TD*%
%TA.AperFunction,SMDPad,CuDef*%
%ADD12RoundRect,0.125000X0.300000X0.125000X-0.300000X0.125000X-0.300000X-0.125000X0.300000X-0.125000X0*%
%TD*%
%TA.AperFunction,SMDPad,CuDef*%
%ADD13R,4.550000X4.410000*%
%TD*%
%TA.AperFunction,ComponentPad*%
%ADD14RoundRect,0.250000X0.750000X1.550000X-0.750000X1.550000X-0.750000X-1.550000X0.750000X-1.550000X0*%
%TD*%
%TA.AperFunction,ComponentPad*%
%ADD15O,2.000000X3.600000*%
%TD*%
%TA.AperFunction,ComponentPad*%
%ADD16R,1.500000X1.500000*%
%TD*%
%TA.AperFunction,ComponentPad*%
%ADD17C,1.500000*%
%TD*%
%TA.AperFunction,ViaPad*%
%ADD18C,0.600000*%
%TD*%
%TA.AperFunction,Conductor*%
%ADD19C,0.200000*%
%TD*%
G04 APERTURE END LIST*
D10*
%TO.P,J8,1,Pin_1_1*%
%TO.N,Net-(J10-Pin_1)*%
X163645000Y-129000000D03*
D11*
%TO.P,J8,2,Pin_2_2*%
%TO.N,Net-(J8-Pin_2)*%
X163645000Y-121500000D03*
%TO.P,J8,3,Pin_3_3*%
%TO.N,Net-(J10-Pin_2)*%
X163645000Y-114000000D03*
%TD*%
D12*
%TO.P,Q3,1,S_1*%
%TO.N,Net-(J10-Pin_2)*%
X158450000Y-88905000D03*
%TO.P,Q3,2,S_2*%
X158450000Y-87635000D03*
%TO.P,Q3,3,S_3*%
X158450000Y-86365000D03*
%TO.P,Q3,4,G_4*%
%TO.N,Net-(Q3-G)*%
X158450000Y-85095000D03*
D13*
%TO.P,Q3,5,D_5*%
%TO.N,Net-(J3-Pin_2)*%
X154500000Y-87000000D03*
%TD*%
D10*
%TO.P,J7,1,Pin_1_1*%
%TO.N,Net-(J10-Pin_1)*%
X152550000Y-129000000D03*
D11*
%TO.P,J7,2,Pin_2_2*%
%TO.N,Net-(J7-Pin_2)*%
X152550000Y-121500000D03*
%TO.P,J7,3,Pin_3_3*%
%TO.N,Net-(J10-Pin_2)*%
X152550000Y-114000000D03*
%TD*%
D14*
%TO.P,J3,1,Pin_1_1*%
%TO.N,Net-(J10-Pin_1)*%
X176895000Y-86777500D03*
D15*
%TO.P,J3,2,Pin_2_2*%
%TO.N,Net-(J3-Pin_2)*%
X169395000Y-86777500D03*
%TD*%
D10*
%TO.P,J6,1,Pin_1_1*%
%TO.N,Net-(J10-Pin_1)*%
X141455000Y-129000000D03*
D11*
%TO.P,J6,2,Pin_2_2*%
%TO.N,Net-(J6-Pin_2)*%
X141455000Y-121500000D03*
%TO.P,J6,3,Pin_3_3*%
%TO.N,Net-(J10-Pin_2)*%
X141455000Y-114000000D03*
%TD*%
D10*
%TO.P,J5,1,Pin_1_1*%
%TO.N,Net-(J10-Pin_1)*%
X130360000Y-129000000D03*
D11*
%TO.P,J5,2,Pin_2_2*%
%TO.N,Net-(J5-Pin_2)*%
X130360000Y-121500000D03*
%TO.P,J5,3,Pin_3_3*%
%TO.N,Net-(J10-Pin_2)*%
X130360000Y-114000000D03*
%TD*%
D16*
%TO.P,U6,1,GND_1*%
%TO.N,Net-(J10-Pin_2)*%
X121785000Y-67300000D03*
D17*
%TO.P,U6,2,3V3_2*%
%TO.N,Net-(J10-Pin_3)*%
X121785000Y-69840000D03*
%TO.P,U6,3,3V3_3*%
X121785000Y-72380000D03*
%TO.P,U6,4,IO2_4*%
%TO.N,Net-(J9-Pin_3)*%
X121785000Y-74920000D03*
%TO.P,U6,5,IO3_5*%
%TO.N,Net-(J5-Pin_2)*%
X121785000Y-77460000D03*
%TO.P,U6,6,GND_6*%
%TO.N,Net-(J10-Pin_2)*%
X121785000Y-80000000D03*
%TO.P,U6,7,RST_7*%
%TO.N,unconnected-(U6-RST-Pad7)*%
X121785000Y-82540000D03*
%TO.P,U6,8,GND_8*%
%TO.N,Net-(J10-Pin_2)*%
X121785000Y-85080000D03*
%TO.P,U6,9,IO0_9*%
%TO.N,unconnected-(U6-IO0-Pad9)*%
X121785000Y-87620000D03*
%TO.P,U6,10,IO1_10*%
%TO.N,Net-(J9-Pin_2)*%
X121785000Y-90160000D03*
%TO.P,U6,11,IO10_11*%
%TO.N,unconnected-(U6-IO10-Pad11)*%
X121785000Y-92700000D03*
%TO.P,U6,12,GND_12*%
%TO.N,Net-(J10-Pin_2)*%
X121785000Y-95240000D03*
%TO.P,U6,13,5V_13*%
%TO.N,Net-(J10-Pin_1)*%
X121785000Y-97780000D03*
%TO.P,U6,14,5V_14*%
X121785000Y-100320000D03*
%TO.P,U6,15,GND_15*%
%TO.N,Net-(J10-Pin_2)*%
X121785000Y-102860000D03*
%TO.P,U6,16,GND_16*%
X144645000Y-102860000D03*
%TO.P,U6,17,IO19_17*%
%TO.N,Net-(Q2-G)*%
X144645000Y-100320000D03*
%TO.P,U6,18,IO18_18*%
%TO.N,Net-(Q3-G)*%
X144645000Y-97780000D03*
%TO.P,U6,19,GND_19*%
%TO.N,Net-(J10-Pin_2)*%
X144645000Y-95240000D03*
%TO.P,U6,20,IO4_20*%
%TO.N,Net-(J6-Pin_2)*%
X144645000Y-92700000D03*
%TO.P,U6,21,IO5_21*%
%TO.N,Net-(J7-Pin_2)*%
X144645000Y-90160000D03*
%TO.P,U6,22,IO6_22*%
%TO.N,Net-(J8-Pin_2)*%
X144645000Y-87620000D03*
%TO.P,U6,23,IO7_23*%
%TO.N,Net-(Q4-G)*%
X144645000Y-85080000D03*
%TO.P,U6,24,GND_24*%
%TO.N,Net-(J10-Pin_2)*%
X144645000Y-82540000D03*
%TO.P,U6,25,IO8_25*%
%TO.N,unconnected-(U6-IO8-Pad25)*%
X144645000Y-80000000D03*
%TO.P,U6,26,IO9_26*%
%TO.N,unconnected-(U6-IO9-Pad26)*%
X144645000Y-77460000D03*
%TO.P,U6,27,GND_27*%
%TO.N,Net-(J10-Pin_2)*%
X144645000Y-74920000D03*
%TO.P,U6,28,RX_28*%
%TO.N,unconnected-(U6-RX-Pad28)*%
X144645000Y-72380000D03*
%TO.P,U6,29,TX_29*%
%TO.N,unconnected-(U6-TX-Pad29)*%
X144645000Y-69840000D03*
%TO.P,U6,30,GND_30*%
%TO.N,Net-(J10-Pin_2)*%
X144645000Y-67300000D03*
%TD*%
D12*
%TO.P,Q4,1,S_1*%
%TO.N,Net-(J10-Pin_2)*%
X158545000Y-75905000D03*
%TO.P,Q4,2,S_2*%
X158545000Y-74635000D03*
%TO.P,Q4,3,S_3*%
X158545000Y-73365000D03*
%TO.P,Q4,4,G_4*%
%TO.N,Net-(Q4-G)*%
X158545000Y-72095000D03*
D13*
%TO.P,Q4,5,D_5*%
%TO.N,Net-(J4-Pin_2)*%
X154595000Y-74000000D03*
%TD*%
D12*
%TO.P,Q2,1,S_1*%
%TO.N,Net-(J10-Pin_2)*%
X158450000Y-102405000D03*
%TO.P,Q2,2,S_2*%
X158450000Y-101135000D03*
%TO.P,Q2,3,S_3*%
X158450000Y-99865000D03*
%TO.P,Q2,4,G_4*%
%TO.N,Net-(Q2-G)*%
X158450000Y-98595000D03*
D13*
%TO.P,Q2,5,D_5*%
%TO.N,Net-(J2-Pin_2)*%
X154500000Y-100500000D03*
%TD*%
D14*
%TO.P,J4,1,Pin_1_1*%
%TO.N,Net-(J10-Pin_1)*%
X177025000Y-74055000D03*
D15*
%TO.P,J4,2,Pin_2_2*%
%TO.N,Net-(J4-Pin_2)*%
X169525000Y-74055000D03*
%TD*%
D14*
%TO.P,J2,1,Pin_1_1*%
%TO.N,Net-(J10-Pin_1)*%
X176895000Y-100000000D03*
D15*
%TO.P,J2,2,Pin_2_2*%
%TO.N,Net-(J2-Pin_2)*%
X169395000Y-100000000D03*
%TD*%
D10*
%TO.P,J9,1,Pin_1_1*%
%TO.N,Net-(J10-Pin_1)*%
X176645000Y-144000000D03*
D11*
%TO.P,J9,2,Pin_2_2*%
%TO.N,Net-(J9-Pin_2)*%
X176645000Y-136500000D03*
%TO.P,J9,3,Pin_3_3*%
%TO.N,Net-(J9-Pin_3)*%
X176645000Y-129000000D03*
%TO.P,J9,4,Pin_4_4*%
%TO.N,Net-(J10-Pin_2)*%
X176645000Y-121500000D03*
%TO.P,J9,5,Pin_5_5*%
%TO.N,unconnected-(J9-Pin_5-Pad5)*%
X176645000Y-114000000D03*
%TD*%
D14*
%TO.P,J10,1,Pin_1_1*%
%TO.N,Net-(J10-Pin_1)*%
X139645000Y-143000000D03*
D15*
%TO.P,J10,2,Pin_2_2*%
%TO.N,Net-(J10-Pin_2)*%
X132145000Y-143000000D03*
%TO.P,J10,3,Pin_3_3*%
%TO.N,Net-(J10-Pin_3)*%
X124645000Y-143000000D03*
%TD*%
D18*
%TO.N,Net-(J3-Pin_2)*%
X169395000Y-86777500D03*
X154500000Y-90500000D03*
%TO.N,Net-(J4-Pin_2)*%
X154645000Y-77500000D03*
X169525000Y-74055000D03*
%TO.N,Net-(J2-Pin_2)*%
X154500000Y-104000000D03*
X169395000Y-100000000D03*
%TD*%
%TO.N,Net-(J10-Pin_1)*%
D19*
X119645000Y-98000000D02*
X119865000Y-97780000D01*
X135145000Y-147500000D02*
X139645000Y-143000000D01*
X130360000Y-129000000D02*
X141455000Y-129000000D01*
X141455000Y-129000000D02*
X163645000Y-129000000D01*
X119645000Y-147500000D02*
X135145000Y-147500000D01*
X176645000Y-142000000D02*
X179145000Y-139500000D01*
X139645000Y-130810000D02*
X141455000Y-129000000D01*
X139645000Y-143000000D02*
X139645000Y-130810000D01*
X119645000Y-102460000D02*
X119645000Y-147500000D01*
X121785000Y-100320000D02*
X119645000Y-98180000D01*
X168970000Y-66000000D02*
X177025000Y-74055000D01*
X119645000Y-98000000D02*
X119645000Y-66000000D01*
X119865000Y-97780000D02*
X121785000Y-97780000D01*
X176645000Y-142000000D02*
X176645000Y-144000000D01*
X179145000Y-139500000D02*
X179145000Y-102250000D01*
X121785000Y-100320000D02*
X119645000Y-102460000D01*
X177025000Y-74055000D02*
X177025000Y-99870000D01*
X177025000Y-99870000D02*
X176895000Y-100000000D01*
X119645000Y-98180000D02*
X119645000Y-98000000D01*
X119645000Y-66000000D02*
X168970000Y-66000000D01*
X163645000Y-129000000D02*
X176645000Y-142000000D01*
X179145000Y-102250000D02*
X176895000Y-100000000D01*
%TO.N,Net-(J10-Pin_2)*%
X159645000Y-89000000D02*
X159645000Y-76000000D01*
X142645000Y-76920000D02*
X144645000Y-74920000D01*
X159645000Y-102500000D02*
X159550000Y-102405000D01*
X142645000Y-97240000D02*
X144645000Y-95240000D01*
X163645000Y-114000000D02*
X169145000Y-114000000D01*
X142645000Y-80540000D02*
X142645000Y-76920000D01*
X144645000Y-102860000D02*
X142645000Y-100860000D01*
X126145000Y-114000000D02*
X130360000Y-114000000D01*
X163645000Y-106500000D02*
X159645000Y-102500000D01*
X130360000Y-114000000D02*
X163645000Y-114000000D01*
X141455000Y-114000000D02*
X141455000Y-106050000D01*
X121785000Y-102860000D02*
X121785000Y-145640000D01*
X126145000Y-137000000D02*
X126145000Y-114000000D01*
X158695000Y-88905000D02*
X159550000Y-88905000D01*
X159550000Y-88905000D02*
X159645000Y-89000000D01*
X132145000Y-143000000D02*
X126145000Y-137000000D01*
X142645000Y-69300000D02*
X144645000Y-67300000D01*
X141455000Y-106050000D02*
X144645000Y-102860000D01*
X144645000Y-74920000D02*
X142645000Y-72920000D01*
X121785000Y-67300000D02*
X144645000Y-67300000D01*
X159550000Y-102405000D02*
X158450000Y-102405000D01*
X122145000Y-146000000D02*
X129145000Y-146000000D01*
X142645000Y-100860000D02*
X142645000Y-97240000D01*
X144645000Y-95240000D02*
X142645000Y-93240000D01*
X159645000Y-102500000D02*
X159645000Y-89000000D01*
X169145000Y-114000000D02*
X176645000Y-121500000D01*
X142645000Y-93240000D02*
X142645000Y-84540000D01*
X142645000Y-72920000D02*
X142645000Y-69300000D01*
X121785000Y-145640000D02*
X122145000Y-146000000D01*
X163645000Y-106500000D02*
X163645000Y-114000000D01*
X129145000Y-146000000D02*
X132145000Y-143000000D01*
X159550000Y-75905000D02*
X159645000Y-76000000D01*
X144645000Y-82540000D02*
X142645000Y-80540000D01*
X158695000Y-75905000D02*
X159550000Y-75905000D01*
X142645000Y-84540000D02*
X144645000Y-82540000D01*
%TO.N,Net-(Q3-G)*%
X158450000Y-85095000D02*
X158450000Y-83805000D01*
X148645000Y-93780000D02*
X144645000Y-97780000D01*
X157645000Y-83000000D02*
X148645000Y-83000000D01*
X148645000Y-83000000D02*
X148645000Y-93780000D01*
X158450000Y-83805000D02*
X157645000Y-83000000D01*
%TO.N,Net-(J3-Pin_2)*%
X154500000Y-90500000D02*
X154500000Y-87000000D01*
%TO.N,Net-(J10-Pin_3)*%
X124645000Y-143000000D02*
X123645000Y-142000000D01*
X123645000Y-72380000D02*
X121785000Y-72380000D01*
X121785000Y-69840000D02*
X121785000Y-72380000D01*
X123645000Y-142000000D02*
X123645000Y-72380000D01*
%TO.N,Net-(Q2-G)*%
X157645000Y-96000000D02*
X148965000Y-96000000D01*
X158450000Y-98595000D02*
X158450000Y-96805000D01*
X148965000Y-96000000D02*
X144645000Y-100320000D01*
X158450000Y-96805000D02*
X157645000Y-96000000D01*
%TO.N,Net-(Q4-G)*%
X146645000Y-72000000D02*
X146645000Y-83080000D01*
X157645000Y-70000000D02*
X148645000Y-70000000D01*
X146645000Y-83080000D02*
X144645000Y-85080000D01*
X158545000Y-72095000D02*
X158545000Y-70900000D01*
X148645000Y-70000000D02*
X146645000Y-72000000D01*
X158545000Y-70900000D02*
X157645000Y-70000000D01*
%TO.N,Net-(J4-Pin_2)*%
X154645000Y-77500000D02*
X154595000Y-77450000D01*
X154595000Y-77450000D02*
X154595000Y-74000000D01*
%TO.N,Net-(J2-Pin_2)*%
X154500000Y-104000000D02*
X154500000Y-100500000D01*
%TD*%
M02*
