%TF.GenerationSoftware,KiCad,Pcbnew,10.0.0*%
%TF.CreationDate,2026-04-21T09:58:29+03:00*%
%TF.ProjectId,flowerinator,666c6f77-6572-4696-9e61-746f722e6b69,rev?*%
%TF.SameCoordinates,Original*%
%TF.FileFunction,Copper,L2,Bot*%
%TF.FilePolarity,Positive*%
%FSLAX46Y46*%
G04 Gerber Fmt 4.6, Leading zero omitted, Abs format (unit mm)*
G04 Created by KiCad (PCBNEW 10.0.0) date 2026-04-21 09:58:29*
%MOMM*%
%LPD*%
G01*
G04 APERTURE LIST*
G04 Aperture macros list*
%AMRoundRect*
0 Rectangle with rounded corners*
0 $1 Rounding radius*
0 $2 $3 $4 $5 $6 $7 $8 $9 X,Y pos of 4 corners*
0 Add a 4 corners polygon primitive as box body*
4,1,4,$2,$3,$4,$5,$6,$7,$8,$9,$2,$3,0*
0 Add four circle primitives for the rounded corners*
1,1,$1+$1,$2,$3*
1,1,$1+$1,$4,$5*
1,1,$1+$1,$6,$7*
1,1,$1+$1,$8,$9*
0 Add four rect primitives between the rounded corners*
20,1,$1+$1,$2,$3,$4,$5,0*
20,1,$1+$1,$4,$5,$6,$7,0*
20,1,$1+$1,$6,$7,$8,$9,0*
20,1,$1+$1,$8,$9,$2,$3,0*%
G04 Aperture macros list end*
%TA.AperFunction,ComponentPad*%
%ADD10RoundRect,0.250000X1.550000X-0.750000X1.550000X0.750000X-1.550000X0.750000X-1.550000X-0.750000X0*%
%TD*%
%TA.AperFunction,ComponentPad*%
%ADD11O,3.600000X2.000000*%
%TD*%
%TA.AperFunction,ComponentPad*%
%ADD12RoundRect,0.250000X0.750000X1.550000X-0.750000X1.550000X-0.750000X-1.550000X0.750000X-1.550000X0*%
%TD*%
%TA.AperFunction,ComponentPad*%
%ADD13O,2.000000X3.600000*%
%TD*%
%TA.AperFunction,ComponentPad*%
%ADD14R,1.500000X1.500000*%
%TD*%
%TA.AperFunction,ComponentPad*%
%ADD15C,1.500000*%
%TD*%
%TA.AperFunction,ViaPad*%
%ADD16C,0.600000*%
%TD*%
%TA.AperFunction,Conductor*%
%ADD17C,0.200000*%
%TD*%
G04 APERTURE END LIST*
D10*
%TO.P,J8,1,Pin_1_1*%
%TO.N,Net-(J10-Pin_1)*%
X163645000Y-129000000D03*
D11*
%TO.P,J8,2,Pin_2_2*%
%TO.N,Net-(J8-Pin_2)*%
X163645000Y-121500000D03*
%TO.P,J8,3,Pin_3_3*%
%TO.N,Net-(J10-Pin_2)*%
X163645000Y-114000000D03*
%TD*%
D10*
%TO.P,J7,1,Pin_1_1*%
%TO.N,Net-(J10-Pin_1)*%
X152550000Y-129000000D03*
D11*
%TO.P,J7,2,Pin_2_2*%
%TO.N,Net-(J7-Pin_2)*%
X152550000Y-121500000D03*
%TO.P,J7,3,Pin_3_3*%
%TO.N,Net-(J10-Pin_2)*%
X152550000Y-114000000D03*
%TD*%
D12*
%TO.P,J3,1,Pin_1_1*%
%TO.N,Net-(J10-Pin_1)*%
X176895000Y-86777500D03*
D13*
%TO.P,J3,2,Pin_2_2*%
%TO.N,Net-(J3-Pin_2)*%
X169395000Y-86777500D03*
%TD*%
D10*
%TO.P,J6,1,Pin_1_1*%
%TO.N,Net-(J10-Pin_1)*%
X141455000Y-129000000D03*
D11*
%TO.P,J6,2,Pin_2_2*%
%TO.N,Net-(J6-Pin_2)*%
X141455000Y-121500000D03*
%TO.P,J6,3,Pin_3_3*%
%TO.N,Net-(J10-Pin_2)*%
X141455000Y-114000000D03*
%TD*%
D10*
%TO.P,J5,1,Pin_1_1*%
%TO.N,Net-(J10-Pin_1)*%
X130360000Y-129000000D03*
D11*
%TO.P,J5,2,Pin_2_2*%
%TO.N,Net-(J5-Pin_2)*%
X130360000Y-121500000D03*
%TO.P,J5,3,Pin_3_3*%
%TO.N,Net-(J10-Pin_2)*%
X130360000Y-114000000D03*
%TD*%
D14*
%TO.P,U6,1,GND_1*%
%TO.N,Net-(J10-Pin_2)*%
X121785000Y-67300000D03*
D15*
%TO.P,U6,2,3V3_2*%
%TO.N,Net-(J10-Pin_3)*%
X121785000Y-69840000D03*
%TO.P,U6,3,3V3_3*%
X121785000Y-72380000D03*
%TO.P,U6,4,IO2_4*%
%TO.N,Net-(J9-Pin_3)*%
X121785000Y-74920000D03*
%TO.P,U6,5,IO3_5*%
%TO.N,Net-(J5-Pin_2)*%
X121785000Y-77460000D03*
%TO.P,U6,6,GND_6*%
%TO.N,Net-(J10-Pin_2)*%
X121785000Y-80000000D03*
%TO.P,U6,7,RST_7*%
%TO.N,unconnected-(U6-RST-Pad7)*%
X121785000Y-82540000D03*
%TO.P,U6,8,GND_8*%
%TO.N,Net-(J10-Pin_2)*%
X121785000Y-85080000D03*
%TO.P,U6,9,IO0_9*%
%TO.N,unconnected-(U6-IO0-Pad9)*%
X121785000Y-87620000D03*
%TO.P,U6,10,IO1_10*%
%TO.N,Net-(J9-Pin_2)*%
X121785000Y-90160000D03*
%TO.P,U6,11,IO10_11*%
%TO.N,unconnected-(U6-IO10-Pad11)*%
X121785000Y-92700000D03*
%TO.P,U6,12,GND_12*%
%TO.N,Net-(J10-Pin_2)*%
X121785000Y-95240000D03*
%TO.P,U6,13,5V_13*%
%TO.N,Net-(J10-Pin_1)*%
X121785000Y-97780000D03*
%TO.P,U6,14,5V_14*%
X121785000Y-100320000D03*
%TO.P,U6,15,GND_15*%
%TO.N,Net-(J10-Pin_2)*%
X121785000Y-102860000D03*
%TO.P,U6,16,GND_16*%
X144645000Y-102860000D03*
%TO.P,U6,17,IO19_17*%
%TO.N,Net-(Q2-G)*%
X144645000Y-100320000D03*
%TO.P,U6,18,IO18_18*%
%TO.N,Net-(Q3-G)*%
X144645000Y-97780000D03*
%TO.P,U6,19,GND_19*%
%TO.N,Net-(J10-Pin_2)*%
X144645000Y-95240000D03*
%TO.P,U6,20,IO4_20*%
%TO.N,Net-(J6-Pin_2)*%
X144645000Y-92700000D03*
%TO.P,U6,21,IO5_21*%
%TO.N,Net-(J7-Pin_2)*%
X144645000Y-90160000D03*
%TO.P,U6,22,IO6_22*%
%TO.N,Net-(J8-Pin_2)*%
X144645000Y-87620000D03*
%TO.P,U6,23,IO7_23*%
%TO.N,Net-(Q4-G)*%
X144645000Y-85080000D03*
%TO.P,U6,24,GND_24*%
%TO.N,Net-(J10-Pin_2)*%
X144645000Y-82540000D03*
%TO.P,U6,25,IO8_25*%
%TO.N,unconnected-(U6-IO8-Pad25)*%
X144645000Y-80000000D03*
%TO.P,U6,26,IO9_26*%
%TO.N,unconnected-(U6-IO9-Pad26)*%
X144645000Y-77460000D03*
%TO.P,U6,27,GND_27*%
%TO.N,Net-(J10-Pin_2)*%
X144645000Y-74920000D03*
%TO.P,U6,28,RX_28*%
%TO.N,unconnected-(U6-RX-Pad28)*%
X144645000Y-72380000D03*
%TO.P,U6,29,TX_29*%
%TO.N,unconnected-(U6-TX-Pad29)*%
X144645000Y-69840000D03*
%TO.P,U6,30,GND_30*%
%TO.N,Net-(J10-Pin_2)*%
X144645000Y-67300000D03*
%TD*%
D12*
%TO.P,J4,1,Pin_1_1*%
%TO.N,Net-(J10-Pin_1)*%
X177025000Y-74055000D03*
D13*
%TO.P,J4,2,Pin_2_2*%
%TO.N,Net-(J4-Pin_2)*%
X169525000Y-74055000D03*
%TD*%
D12*
%TO.P,J2,1,Pin_1_1*%
%TO.N,Net-(J10-Pin_1)*%
X176895000Y-100000000D03*
D13*
%TO.P,J2,2,Pin_2_2*%
%TO.N,Net-(J2-Pin_2)*%
X169395000Y-100000000D03*
%TD*%
D10*
%TO.P,J9,1,Pin_1_1*%
%TO.N,Net-(J10-Pin_1)*%
X176645000Y-144000000D03*
D11*
%TO.P,J9,2,Pin_2_2*%
%TO.N,Net-(J9-Pin_2)*%
X176645000Y-136500000D03*
%TO.P,J9,3,Pin_3_3*%
%TO.N,Net-(J9-Pin_3)*%
X176645000Y-129000000D03*
%TO.P,J9,4,Pin_4_4*%
%TO.N,Net-(J10-Pin_2)*%
X176645000Y-121500000D03*
%TO.P,J9,5,Pin_5_5*%
%TO.N,unconnected-(J9-Pin_5-Pad5)*%
X176645000Y-114000000D03*
%TD*%
D12*
%TO.P,J10,1,Pin_1_1*%
%TO.N,Net-(J10-Pin_1)*%
X139645000Y-143000000D03*
D13*
%TO.P,J10,2,Pin_2_2*%
%TO.N,Net-(J10-Pin_2)*%
X132145000Y-143000000D03*
%TO.P,J10,3,Pin_3_3*%
%TO.N,Net-(J10-Pin_3)*%
X124645000Y-143000000D03*
%TD*%
D16*
%TO.N,Net-(J3-Pin_2)*%
X169395000Y-86777500D03*
X154500000Y-90500000D03*
%TO.N,Net-(J4-Pin_2)*%
X154645000Y-77500000D03*
X169525000Y-74055000D03*
%TO.N,Net-(J2-Pin_2)*%
X154500000Y-104000000D03*
X169395000Y-100000000D03*
%TD*%
%TO.N,Net-(J8-Pin_2)*%
D17*
X150145000Y-104000000D02*
X163645000Y-117500000D01*
X163645000Y-117500000D02*
X163645000Y-121500000D01*
X150145000Y-93120000D02*
X150145000Y-104000000D01*
X144645000Y-87620000D02*
X150145000Y-93120000D01*
%TO.N,Net-(J3-Pin_2)*%
X169172500Y-87000000D02*
X169395000Y-86777500D01*
X158000000Y-87000000D02*
X169172500Y-87000000D01*
X154500000Y-90500000D02*
X158000000Y-87000000D01*
%TO.N,Net-(J7-Pin_2)*%
X148145000Y-117095000D02*
X152550000Y-121500000D01*
X144645000Y-90160000D02*
X148145000Y-93660000D01*
X148145000Y-93660000D02*
X148145000Y-117095000D01*
%TO.N,Net-(J6-Pin_2)*%
X147145000Y-118500000D02*
X144145000Y-121500000D01*
X147145000Y-95200000D02*
X147145000Y-118500000D01*
X144645000Y-92700000D02*
X147145000Y-95200000D01*
X144145000Y-121500000D02*
X141455000Y-121500000D01*
%TO.N,Net-(J5-Pin_2)*%
X135145000Y-90820000D02*
X135145000Y-118000000D01*
X121785000Y-77460000D02*
X135145000Y-90820000D01*
X131645000Y-121500000D02*
X130360000Y-121500000D01*
X135145000Y-118000000D02*
X131645000Y-121500000D01*
%TO.N,Net-(J9-Pin_3)*%
X149645000Y-76000000D02*
X151145000Y-77500000D01*
X151145000Y-77500000D02*
X151145000Y-103000000D01*
X151145000Y-103000000D02*
X154145000Y-106000000D01*
X175145000Y-106000000D02*
X181145000Y-112000000D01*
X181145000Y-112000000D02*
X181145000Y-124500000D01*
X181145000Y-124500000D02*
X176645000Y-129000000D01*
X122865000Y-76000000D02*
X149645000Y-76000000D01*
X154145000Y-106000000D02*
X175145000Y-106000000D01*
X121785000Y-74920000D02*
X122865000Y-76000000D01*
%TO.N,Net-(J9-Pin_2)*%
X127145000Y-136500000D02*
X176645000Y-136500000D01*
X121785000Y-90160000D02*
X126645000Y-95020000D01*
X126645000Y-136000000D02*
X127145000Y-136500000D01*
X126645000Y-95020000D02*
X126645000Y-136000000D01*
%TO.N,Net-(J4-Pin_2)*%
X154645000Y-77500000D02*
X158145000Y-74000000D01*
X169470000Y-74000000D02*
X169525000Y-74055000D01*
X158145000Y-74000000D02*
X169470000Y-74000000D01*
%TO.N,Net-(J2-Pin_2)*%
X154500000Y-104000000D02*
X154500000Y-100500000D01*
X154500000Y-100500000D02*
X155000000Y-100000000D01*
X155000000Y-100000000D02*
X169395000Y-100000000D01*
%TD*%
M02*
