%TF.GenerationSoftware,KiCad,Pcbnew,10.0.0*%
%TF.CreationDate,2026-04-21T09:58:29+03:00*%
%TF.ProjectId,flowerinator,666c6f77-6572-4696-9e61-746f722e6b69,rev?*%
%TF.SameCoordinates,Original*%
%TF.FileFunction,Soldermask,Top*%
%TF.FilePolarity,Negative*%
%FSLAX46Y46*%
G04 Gerber Fmt 4.6, Leading zero omitted, Abs format (unit mm)*
G04 Created by KiCad (PCBNEW 10.0.0) date 2026-04-21 09:58:29*
%MOMM*%
%LPD*%
G01*
G04 APERTURE LIST*
G04 Aperture macros list*
%AMRoundRect*
0 Rectangle with rounded corners*
0 $1 Rounding radius*
0 $2 $3 $4 $5 $6 $7 $8 $9 X,Y pos of 4 corners*
0 Add a 4 corners polygon primitive as box body*
4,1,4,$2,$3,$4,$5,$6,$7,$8,$9,$2,$3,0*
0 Add four circle primitives for the rounded corners*
1,1,$1+$1,$2,$3*
1,1,$1+$1,$4,$5*
1,1,$1+$1,$6,$7*
1,1,$1+$1,$8,$9*
0 Add four rect primitives between the rounded corners*
20,1,$1+$1,$2,$3,$4,$5,0*
20,1,$1+$1,$4,$5,$6,$7,0*
20,1,$1+$1,$6,$7,$8,$9,0*
20,1,$1+$1,$8,$9,$2,$3,0*%
%AMFreePoly0*
4,1,17,2.675000,1.605000,1.875000,1.605000,1.875000,0.935000,2.675000,0.935000,2.675000,0.335000,1.875000,0.335000,1.875000,-0.335000,2.675000,-0.335000,2.675000,-0.935000,1.875000,-0.935000,1.875000,-1.605000,2.675000,-1.605000,2.675000,-2.205000,-1.875000,-2.205000,-1.875000,2.205000,2.675000,2.205000,2.675000,1.605000,2.675000,1.605000,$1*%
G04 Aperture macros list end*
%ADD10RoundRect,0.250000X1.550000X-0.750000X1.550000X0.750000X-1.550000X0.750000X-1.550000X-0.750000X0*%
%ADD11O,3.600000X2.000000*%
%ADD12FreePoly0,180.000000*%
%ADD13RoundRect,0.125000X0.300000X0.125000X-0.300000X0.125000X-0.300000X-0.125000X0.300000X-0.125000X0*%
%ADD14RoundRect,0.250000X0.750000X1.550000X-0.750000X1.550000X-0.750000X-1.550000X0.750000X-1.550000X0*%
%ADD15O,2.000000X3.600000*%
%ADD16R,1.500000X1.500000*%
%ADD17C,1.500000*%
G04 APERTURE END LIST*
D10*
%TO.C,J8*%
X163645000Y-129000000D03*
D11*
X163645000Y-121500000D03*
X163645000Y-114000000D03*
%TD*%
D12*
%TO.C,Q3*%
X154900000Y-87000000D03*
D13*
X158450000Y-88905000D03*
X158450000Y-87635000D03*
X158450000Y-86365000D03*
X158450000Y-85095000D03*
%TD*%
D10*
%TO.C,J7*%
X152550000Y-129000000D03*
D11*
X152550000Y-121500000D03*
X152550000Y-114000000D03*
%TD*%
D14*
%TO.C,J3*%
X176895000Y-86777500D03*
D15*
X169395000Y-86777500D03*
%TD*%
D10*
%TO.C,J6*%
X141455000Y-129000000D03*
D11*
X141455000Y-121500000D03*
X141455000Y-114000000D03*
%TD*%
D10*
%TO.C,J5*%
X130360000Y-129000000D03*
D11*
X130360000Y-121500000D03*
X130360000Y-114000000D03*
%TD*%
D16*
%TO.C,U6*%
X121785000Y-67300000D03*
D17*
X121785000Y-69840000D03*
X121785000Y-72380000D03*
X121785000Y-74920000D03*
X121785000Y-77460000D03*
X121785000Y-80000000D03*
X121785000Y-82540000D03*
X121785000Y-85080000D03*
X121785000Y-87620000D03*
X121785000Y-90160000D03*
X121785000Y-92700000D03*
X121785000Y-95240000D03*
X121785000Y-97780000D03*
X121785000Y-100320000D03*
X121785000Y-102860000D03*
X144645000Y-102860000D03*
X144645000Y-100320000D03*
X144645000Y-97780000D03*
X144645000Y-95240000D03*
X144645000Y-92700000D03*
X144645000Y-90160000D03*
X144645000Y-87620000D03*
X144645000Y-85080000D03*
X144645000Y-82540000D03*
X144645000Y-80000000D03*
X144645000Y-77460000D03*
X144645000Y-74920000D03*
X144645000Y-72380000D03*
X144645000Y-69840000D03*
X144645000Y-67300000D03*
%TD*%
D12*
%TO.C,Q4*%
X154995000Y-74000000D03*
D13*
X158545000Y-75905000D03*
X158545000Y-74635000D03*
X158545000Y-73365000D03*
X158545000Y-72095000D03*
%TD*%
D12*
%TO.C,Q2*%
X154900000Y-100500000D03*
D13*
X158450000Y-102405000D03*
X158450000Y-101135000D03*
X158450000Y-99865000D03*
X158450000Y-98595000D03*
%TD*%
D14*
%TO.C,J4*%
X177025000Y-74055000D03*
D15*
X169525000Y-74055000D03*
%TD*%
D14*
%TO.C,J2*%
X176895000Y-100000000D03*
D15*
X169395000Y-100000000D03*
%TD*%
D10*
%TO.C,J9*%
X176645000Y-144000000D03*
D11*
X176645000Y-136500000D03*
X176645000Y-129000000D03*
X176645000Y-121500000D03*
X176645000Y-114000000D03*
%TD*%
D14*
%TO.C,J10*%
X139645000Y-143000000D03*
D15*
X132145000Y-143000000D03*
X124645000Y-143000000D03*
%TD*%
M02*
