M48
; DRILL file KiCad 10.0.0 date 2026-04-21T09:58:32
; FORMAT={-:-/ absolute / metric / decimal}
; #@! TF.CreationDate,2026-04-21T09:58:32+03:00
; #@! TF.GenerationSoftware,Kicad,Pcbnew,10.0.0
; #@! TF.FileFunction,Plated,1,2,PTH
FMAT,2
METRIC
; #@! TA.AperFunction,Plated,PTH,ViaDrill
T1C0.300
; #@! TA.AperFunction,Plated,PTH,ComponentDrill
T2C0.900
; #@! TA.AperFunction,Plated,PTH,ComponentDrill
T3C1.400
%
G90
G05
T1
X154.5Y-90.5
X154.5Y-104.0
X154.645Y-77.5
X169.395Y-86.777
X169.395Y-100.0
X169.525Y-74.055
T2
X121.785Y-67.3
X121.785Y-69.84
X121.785Y-72.38
X121.785Y-74.92
X121.785Y-77.46
X121.785Y-80.0
X121.785Y-82.54
X121.785Y-85.08
X121.785Y-87.62
X121.785Y-90.16
X121.785Y-92.7
X121.785Y-95.24
X121.785Y-97.78
X121.785Y-100.32
X121.785Y-102.86
X144.645Y-67.3
X144.645Y-69.84
X144.645Y-72.38
X144.645Y-74.92
X144.645Y-77.46
X144.645Y-80.0
X144.645Y-82.54
X144.645Y-85.08
X144.645Y-87.62
X144.645Y-90.16
X144.645Y-92.7
X144.645Y-95.24
X144.645Y-97.78
X144.645Y-100.32
X144.645Y-102.86
T3
X124.645Y-143.0
X130.36Y-114.0
X130.36Y-121.5
X130.36Y-129.0
X132.145Y-143.0
X139.645Y-143.0
X141.455Y-114.0
X141.455Y-121.5
X141.455Y-129.0
X152.55Y-114.0
X152.55Y-121.5
X152.55Y-129.0
X163.645Y-114.0
X163.645Y-121.5
X163.645Y-129.0
X169.395Y-86.777
X169.395Y-100.0
X169.525Y-74.055
X176.645Y-114.0
X176.645Y-121.5
X176.645Y-129.0
X176.645Y-136.5
X176.645Y-144.0
X176.895Y-86.777
X176.895Y-100.0
X177.025Y-74.055
M30
